Patient4_TMGait_0pt6_02_right_37_EMG.mot
version=1
nRows=26
nColumns=33
inDegrees=no
endheader
time	1LAddLong	2LGlutMax	3LGlutMed	4LIliopsoas	5LSemiMemb	6LBicFemLong	7LRecFem	8LVastMed	9LVastLat	10LGasMed	11LTibAnt	12lTibPost	13LPeroneusLong	14LSol	15LExtDigLong	16LFlexDigLong	17RAddLong	18RGlutMax	19RGlutMed	20RIliopsoas	21RSemiMemb	22RBicFemLong	23RRecFem	24RVastMed	25RVastLat	26RGasMed	27RTibAnt	28RTibPost	29RPeroneusLong	30RSol	31RExtDigLong	32RFlexDigLong
45.825	0.001068	-0.081177	0.11749	0.03952	-0.016022	-0.039978	0.093689	-0.000916	0.14358	-0.018768	-0.002441	0.006866	0.18005	-0.027466	-0.033875	-0.001068	0.025177	-0.058136	-0.44662	-0.047913	0.010376	-0.042419	0.1004	-0.14435	-0.001984	-0.005798	-0.18463	-0.000916	0.016937	-0.020905	-0.005798	-0.017395
45.826	0.001831	-0.040741	0.013885	0.026703	-0.035248	-0.009155	0.069885	0.001373	0.16571	-0.007324	0.003967	0.005035	-0.046234	-0.068665	-0.16754	0.00061	0.00061	-0.022888	-0.50049	0.24368	0.010223	0.001068	0.049591	-0.11734	0.007172	-0.001678	-0.11292	-0.001068	0.014954	-0.018616	-0.005646	-0.006104
45.827	0.003052	-0.033722	-0.027771	0.004883	-0.024719	0.059814	0.044708	0.006256	0.081024	-0.012054	0.097046	0.012817	-0.55252	0.12604	-0.050201	0.010071	-0.001831	-0.1181	-0.020294	0.42755	-0.011597	0.007477	-0.0177	-0.12543	0.010376	-0.004578	0.001831	-0.005493	-0.005646	-0.021973	0.011749	-0.001831
45.828	0.006409	-0.033264	-0.060883	0.028381	-0.001831	0.17044	0.051575	0.013428	0.03891	-0.006409	-0.017242	0.011749	-0.18982	0.074005	-0.11627	0.014801	-0.002594	-0.055695	0.60562	0.22201	-0.031433	0.023193	0.005493	-0.12802	0.026398	-0.001831	0.30823	-0.004578	0.039825	-0.050201	-0.000305	-0.009308
45.829	0.007324	-0.058289	0.042877	0.019226	0.012512	0.23575	-0.003052	0.021667	-0.047455	0.008087	-0.021057	0.009766	-0.28549	0.025787	-0.15091	0.006561	-0.00885	-0.050812	0.60638	0.091248	-0.031738	0.030212	0.032806	-0.14191	0.015259	-0.007324	0.50888	-0.003052	0.050507	-0.059357	-0.00061	-0.001984
45.83	-0.009766	-0.029144	0.23422	0.029144	0.024109	0.17258	-0.034485	0.020142	-0.01236	0.027008	-0.069427	0.008087	-0.062561	0.074615	-0.054169	0.000916	0.001221	0.027313	0.4277	-0.047607	-0.021667	0.017548	0.055542	-0.14313	0.005493	-0.012817	0.82382	-0.009155	-0.047455	-0.030365	0.000458	-0.006409
45.831	-0.013733	-0.00412	0.18372	0.000916	0.005188	0.084686	0.014954	0.019379	0.063477	0.048676	-0.082703	0.011749	0.44495	0.10086	0.037689	0.016785	0.009155	0.006561	0.012665	-0.094452	-0.020142	0.009308	0.024719	-0.12863	0.024719	-0.011597	0.65048	-0.000916	-0.028687	-0.050049	-0.007782	0.000763
45.832	-0.017242	-0.064697	0.040131	-0.013733	-0.045166	-0.081177	0.052032	0.0177	0.011444	0.041046	-0.058746	0.012512	0.39658	0.007172	0.076599	0.023956	0.009155	-0.036774	-0.21545	-0.068359	0.015411	0.003967	0.007324	-0.12161	0.025635	-0.005493	-0.048218	-0.006561	-0.06485	-0.047607	-0.000305	-0.002441
45.833	0.003662	-0.10834	0.050659	-0.021057	-0.095215	-0.20783	0.054779	0.005035	-0.015259	0.0177	0.032959	0.018158	0.014648	0.004578	0.023041	0.019531	0.023804	-0.065155	-0.14984	0.037994	0.032349	-0.002747	0.045929	-0.13397	0.015869	-0.001373	-0.62073	-0.00885	-0.06958	-0.005798	0.004883	-0.008545
45.834	0.000458	-0.097351	0.087738	-0.012054	-0.065918	-0.22369	0.074615	-0.00885	-0.006409	-0.021973	0.10895	0.009918	-0.22324	-0.02243	0.02121	0.008392	0.021667	-0.036621	-0.14358	0.19424	0.041656	0.003815	0.03418	-0.15366	0.000763	-0.006409	-0.4776	-0.010376	-0.076752	-0.11154	-0.005493	-0.003052
45.835	-0.001678	-0.10239	0.12024	0	0.057373	-0.12405	0.065918	-0.02182	-0.015411	-0.02121	0.042419	0.010376	0.006409	-0.082703	-0.006256	0.013428	0.011597	-0.031128	-0.39002	0.1294	0.019989	-0.00412	0.02243	-0.17349	0.004425	-0.001068	-0.092163	-0.005951	-0.19486	-0.16815	-0.004578	0.00061
45.836	-0.000153	-0.12955	0.068359	0.023804	0.086975	0.099487	0.070953	-0.015869	0.074005	-0.014191	0.056152	0.017548	0.11963	-0.11688	-0.076141	0.009308	0.056915	-0.077209	-0.48538	-0.023499	-0.001678	-0.064392	0.032349	-0.21469	0.003204	-0.000305	-0.080261	-0.001678	-0.35782	-0.15076	0.001526	0.002289
45.837	0.006409	-0.1474	-0.005951	0.027466	0.068359	0.2092	0.14923	-0.019379	0.032806	-0.024872	0.039673	0.011749	-0.18509	-0.10666	-0.035095	0.003204	0.11612	-0.096283	-0.35507	-0.09201	-0.00412	-0.083466	0.059662	-0.17364	0.024109	0.006409	-0.23666	-0.004425	-0.31006	-0.14694	-0.002594	0.007019
45.838	0.013123	-0.14648	0.001678	0.020142	0.052032	0.2507	0.19363	-0.003357	-0.1181	-0.004578	0.059967	0.021973	-0.49057	-0.14236	0.042877	-0.001221	0.22354	-0.036011	-0.39108	-0.056458	-0.001068	-0.1091	0.058289	-0.21622	0.014038	0.013885	-0.19134	-0.002899	0.58991	-0.1268	-0.005646	0.009766
45.839	0.019531	-0.1294	0.015717	0.017242	0.02182	0.22781	0.18326	0.006561	-0.13138	0.02594	0.067291	0.018005	-0.1799	-0.1149	0.078278	0.008545	0.2211	-0.036163	-0.049438	-0.059204	-0.043793	-0.090027	0.080566	-0.2385	0.013733	-0.003815	-0.40329	-0.002289	0.82367	-0.085449	0.00351	0.012665
45.84	0.014496	-0.12116	-0.007324	0.017242	0.028381	0.13916	0.18951	0.005798	-0.10391	0.022888	0.033875	0.019073	0.02182	-0.043793	0.048218	0.012665	0.13916	0.009613	0.10666	-0.002441	-0.20233	0.057831	0.042877	-0.1915	0.018616	-0.011139	-0.47638	-0.006409	0.092926	-0.012817	-0.009613	0.007019
45.841	0.00946	-0.14221	-0.024872	0.012512	-0.001373	0.07843	0.20371	0.007477	-0.050964	0.012054	0.048981	0.012512	0.031281	0.004425	0.075226	0.008698	0.06073	-0.017548	-0.18448	-0.00061	-0.18097	0.18936	0.055389	-0.19257	0.020752	-0.005798	-0.28656	-0.008392	-0.10483	0.057068	-0.002441	0.001831
45.842	0.011139	-0.10605	-0.039978	0.007629	-0.042114	0.008087	0.14938	0.012207	0.019226	0.050201	0.030212	0.016937	0.1593	-0.059357	0.11017	0.027618	0.037079	-0.007477	-0.19516	0.006866	0.017548	0.21408	0.052338	-0.076294	0.014343	-0.000458	-0.07843	-0.007782	-0.19806	0.000916	0.001526	0.004578
45.843	0.024872	-0.057831	-0.10162	0.007019	-0.052948	0.090179	0.070953	0.010834	0.2005	0.038452	0.02121	0.015564	0.007782	-0.15472	0.11856	0.018005	0.005493	-0.017853	-0.22049	-0.065308	0.15411	0.16617	0.002594	-0.057831	0.008087	0.007019	-0.082855	-0.002594	-0.044708	-0.085754	0.001221	0.003967
45.844	0.024567	-0.066681	-0.1564	0.006104	0.005798	0.15793	0.078888	0.003967	0.23789	0.048065	0.002594	0.015106	-0.024109	-0.07782	0.074005	0.006256	-0.054016	0.012817	-0.23697	-0.028534	0.098114	0.083923	-0.016632	-0.007477	0.00473	0.0177	-0.052185	-0.002899	0.1947	-0.12375	-0.000458	0.005798
45.845	0.033417	-0.067902	-0.11169	0.010223	0.11017	0.080261	0.095215	-0.016022	0.15717	0.059509	0.041962	0.010223	0.018311	-0.075836	0.023193	0.010681	-0.1062	0.022125	-0.23972	0.011749	-0.003357	0.04303	-0.041809	-0.033875	0.017548	0.010681	0.20004	-0.006561	0.28732	-0.060883	0.002899	0.000916
45.846	0.025787	-0.12436	0.034485	0.019073	0.093994	0.077667	0.14542	-0.020142	0.12497	0.057983	0.024567	0.009766	-0.001831	-0.10315	-0.014343	-0.000153	-0.13718	-0.05188	-0.17487	-0.027924	0.023956	0.071411	-0.050964	0.008087	0.010834	0.006409	0.42847	-0.004272	0.1915	0.10635	-0.003662	0.001526
45.847	0.021515	-0.095673	-0.039063	0.005951	0.053253	-0.215	0.20065	0.010376	0.048218	0.039825	-0.006256	0.018463	-0.12863	-0.056152	-0.077515	0.007477	-0.16953	-0.039215	-0.13412	-0.090485	0.007629	0.10056	-0.080566	-0.021515	0.02121	0.013733	0.091248	-0.01297	-0.18265	0.085602	-0.004883	0.00061
45.848	0.005646	-0.058289	-0.035095	0.014191	0.029144	-0.569	0.21576	0.018005	-0.000305	-0.014191	-0.013733	0.021667	-0.10574	0.057373	0.018616	0.020447	-0.17487	0.014038	-0.14053	-0.032806	0.004272	0.084991	-0.036011	-0.065002	0.015106	0.010223	-0.21729	-0.007172	-0.49439	0.041199	-0.00473	-0.000916
45.849	0.012054	-0.042267	-0.08606	-0.011444	0.02594	-0.3363	0.14175	0.015717	-0.031586	-0.010376	-0.03418	0.03067	0.11871	-0.017548	0.42053	0.00351	-0.17227	0.004578	-0.18982	-0.028687	0.03952	0.063934	-0.017242	-0.062561	0.001526	-0.000153	-0.28076	0.002136	-0.17502	0.12528	0.003662	0.000153
45.85	0.002747	-0.067902	-0.10986	0.010223	0.027466	-0.041046	0.14664	0.013123	-0.057068	0.00946	-0.001373	0.019226	-0.005188	-0.13031	-0.044861	0.005951	-0.15961	-0.012512	-0.24857	-0.088043	0.013733	0.09964	-0.031433	-0.094452	0.009918	-0.005798	-0.30045	-0.006561	-0.12619	0.099792	0.004272	0.005035
